<svg width="120" height="40" xmlns="http://www.w3.org/2000/svg"><g fill="none" fill-rule="evenodd"><rect fill="#111" fill-rule="nonzero" width="120" height="40" rx="5"/><g fill="#FFF"><path d="M24.77 20.3a4.92 4.92 0 0 1 2.36-4.15 5.08 5.08 0 0 0-4-2.16c-1.67-.18-3.3 1-4.16 1-.86 0-2.19-1-3.61-1a5.31 5.31 0 0 0-4.47 2.73C9 20.11 10.4 25 12.25 27.74c.93 1.33 2 2.81 3.43 2.75 1.43-.06 1.9-.88 3.58-.88 1.68 0 2.14.88 3.59.85 1.45-.03 2.43-1.33 3.32-2.67a11.09 11.09 0 0 0 1.52-3.09 4.77 4.77 0 0 1-2.92-4.4zM22 12.21a4.89 4.89 0 0 0 1.11-3.49 5 5 0 0 0-3.21 1.66 4.65 4.65 0 0 0-1.14 3.36A4.11 4.11 0 0 0 22 12.21z"/><path d="M42.3 27.14h-4.73l-1.14 3.36h-2l4.48-12.42H41l4.48 12.42h-2l-1.18-3.36zm-4.24-1.55h3.75L40 20.14h-.05l-1.89 5.45zm17.1.41c0 2.81-1.51 4.62-3.78 4.62A3.09 3.09 0 0 1 48.53 29v4.48h-1.9v-12h1.8V23a3.22 3.22 0 0 1 2.89-1.6c2.33-.05 3.84 1.76 3.84 4.6zm-1.91 0c0-1.83-1-3-2.39-3-1.39 0-2.38 1.23-2.38 3s1 3.05 2.38 3.05 2.39-1.23 2.39-3.05zm11.87 0c0 2.81-1.5 4.62-3.77 4.62A3.08 3.08 0 0 1 58.5 29v4.48h-1.9v-12h1.8V23a3.22 3.22 0 0 1 2.88-1.6c2.33-.05 3.84 1.76 3.84 4.6zm-1.91 0c0-1.83-.94-3-2.39-3-1.45 0-2.37 1.23-2.37 3s.95 3 2.37 3c1.42 0 2.39-1.18 2.39-3zm8.5 1c.14 1.23 1.33 2 3 2s2.69-.81 2.69-1.92c0-1.11-.68-1.54-2.29-1.94l-1.61-.39c-2.28-.55-3.33-1.61-3.33-3.34 0-2.15 1.86-3.62 4.51-3.62 2.65 0 4.43 1.47 4.49 3.62h-1.91c-.11-1.24-1.14-2-2.63-2s-2.52.75-2.52 1.86c0 .87.65 1.39 2.25 1.79l1.37.33c2.55.6 3.61 1.63 3.61 3.44 0 2.33-1.86 3.78-4.8 3.78-2.75 0-4.61-1.42-4.73-3.66l1.9.05zm11.64-7.7v2.14h1.72v1.47h-1.72v5c0 .77.34 1.13 1.1 1.13a5 5 0 0 0 .61 0v1.46a5.21 5.21 0 0 1-1 .09c-1.84 0-2.55-.69-2.55-2.45v-5.23h-1.35v-1.47h1.32V19.3h1.87zm2.71 6.7c0-2.85 1.68-4.64 4.3-4.64s4.29 1.79 4.29 4.64c0 2.85-1.65 4.61-4.29 4.61s-4.3-1.78-4.3-4.61zm6.7 0c0-1.95-.9-3.11-2.4-3.11S88 24 88 26c0 2 .89 3.11 2.4 3.11 1.51 0 2.36-1.18 2.36-3.11zm3.43-4.56H98V23a2.16 2.16 0 0 1 2.18-1.63c.215-.003.43.02.64.07v1.74A2.37 2.37 0 0 0 100 23a1.88 1.88 0 0 0-2 2.13v5.37h-1.81v-9.06zm13.19 6.4c-.25 1.64-1.85 2.77-3.89 2.77-2.64 0-4.27-1.77-4.27-4.6 0-2.83 1.64-4.68 4.19-4.68 2.55 0 4.08 1.72 4.08 4.47v.63h-6.4v.12a2.36 2.36 0 0 0 2.44 2.56 2.05 2.05 0 0 0 2.09-1.27h1.76zm-6.28-2.71h4.53a2.17 2.17 0 0 0-2.22-2.29 2.3 2.3 0 0 0-2.31 2.29z" fill-rule="nonzero"/></g><path d="M37.83 8.73a2.64 2.64 0 0 1 2.8 3c0 1.9-1 3-2.8 3h-2.16v-6h2.16zm-1.23 5.12h1.12a1.87 1.87 0 0 0 2-2.14 1.88 1.88 0 0 0-2-2.14H36.6v4.28zm5.08-1.41a2.13 2.13 0 1 1 4.25 0 2.13 2.13 0 1 1-4.25 0zm3.33 0c0-1-.43-1.54-1.2-1.54s-1.21.57-1.21 1.54c0 .97.4 1.56 1.21 1.56.81 0 1.19-.58 1.19-1.56h.01zm6.56 2.26h-.92l-.93-3.32h-.07l-.93 3.32h-.91l-1.24-4.51h.9l.81 3.44h.06l.93-3.44h.85l.93 3.44h.07l.8-3.44h.89l-1.24 4.51zm2.28-4.51h.86v.72h.07a1.33 1.33 0 0 1 1.34-.8 1.46 1.46 0 0 1 1.56 1.67v2.92h-.89V12c0-.73-.32-1.09-1-1.09a1 1 0 0 0-1.08 1.14v2.65h-.89l.03-4.51zm5.24-1.75H60v6.26h-.89l-.02-6.26zm2.13 4a2.13 2.13 0 1 1 4.25 0 2.13 2.13 0 1 1-4.25 0zm3.33 0c0-1-.44-1.54-1.21-1.54s-1.2.57-1.2 1.54c0 .97.43 1.56 1.2 1.56s1.21-.58 1.21-1.56zm1.85.98c0-.81.6-1.27 1.68-1.34L69.3 12v-.39c0-.47-.32-.74-.93-.74-.61 0-.84.18-.93.5h-.87c.1-.78.82-1.27 1.84-1.27s1.77.56 1.77 1.51v3.09h-.86v-.64h-.07a1.49 1.49 0 0 1-1.35.71 1.36 1.36 0 0 1-1.5-1.35zm2.9-.42v-.38l-1.1.07c-.62 0-.91.26-.91.65s.36.64.84.64A1.06 1.06 0 0 0 69.3 13zm2.05-.56c0-1.42.73-2.32 1.87-2.32a1.49 1.49 0 0 1 1.38.79h.06V8.44h.89v6.26h-.85V14h-.07a1.56 1.56 0 0 1-1.41.78c-1.15-.01-1.87-.91-1.87-2.34zm.92 0c0 1 .45 1.53 1.2 1.53s1.21-.58 1.21-1.52c0-.94-.47-1.53-1.21-1.53s-1.2.58-1.2 1.52zm6.96 0a2.13 2.13 0 1 1 4.25 0 2.13 2.13 0 1 1-4.25 0zm3.33 0c0-1-.44-1.54-1.2-1.54s-1.21.57-1.21 1.54c0 .97.43 1.56 1.21 1.56s1.2-.58 1.2-1.56zm2.11-2.25h.85v.72h.07a1.36 1.36 0 0 1 1.35-.8 1.46 1.46 0 0 1 1.55 1.67v2.92h-.88V12c0-.73-.32-1.09-1-1.09a1 1 0 0 0-1.07 1.14v2.65h-.89l.02-4.51zm8.85-1.12v1.15h1V11h-1v2.32c0 .47.19.68.63.68h.34v.74a3.45 3.45 0 0 1-.48 0c-1 0-1.38-.34-1.38-1.21V11h-.72v-.74h.72V9.07h.89zm2.18-.63h.89v2.48h.07a1.37 1.37 0 0 1 1.34-.81 1.48 1.48 0 0 1 1.55 1.68v2.91h-.89V12c0-.72-.33-1.08-1-1.08a1.06 1.06 0 0 0-1.14 1.14v2.64h-.82V8.44zm9.06 5.04a1.82 1.82 0 0 1-2 1.3 2 2 0 0 1-2.08-2.32 2.08 2.08 0 0 1 2.08-2.35c1.25 0 2 .85 2 2.27v.31h-3.17v.05a1.18 1.18 0 0 0 1.24 1.26 1.1 1.1 0 0 0 1.08-.55l.85.03zM101.64 12h2.27a1.09 1.09 0 0 0-1.11-1.17 1.15 1.15 0 0 0-1.16 1.17z" fill="#FFF" fill-rule="nonzero"/></g></svg>