<?xml version="1.0" encoding="UTF-8"?>
<svg width="48px" height="48px" viewBox="0 0 48 48" version="1.1" xmlns="http://www.w3.org/2000/svg" xmlns:xlink="http://www.w3.org/1999/xlink">
    <!-- Generator: Sketch 55 (78076) - https://sketchapp.com -->
    <title>ic-simplepin</title>
    <desc>Created with Sketch.</desc>
    <defs>
        <rect id="path-1" x="0" y="0" width="48" height="48"></rect>
    </defs>
    <g id="ic-simplepin" stroke="none" stroke-width="1" fill="none" fill-rule="evenodd">
        <g id="art_pin">
            <mask id="mask-2" fill="white">
                <use xlink:href="#path-1"></use>
            </mask>
            <g id="Mask"></g>
            <g id="Group-4-Copy-2" mask="url(#mask-2)" fill="#0066CC">
                <g transform="translate(25.500000, 25.000000) rotate(-30.000000) translate(-25.500000, -25.000000) translate(14.000000, 2.000000)" id="Oval-90-Copy-2">
                    <path d="M16.3770076,8.36703354 C15.3125086,8.72001635 14.091164,8.96079104 12.7777778,9.05638322 L12.7777778,23.5259372 C14.4948908,23.4095252 16.0682636,23.0617555 17.3728739,22.5462437 L16.3770076,8.36703354 Z M17.9347855,7.71243381 L19.0586208,21.4367258 C21.4739519,22.3902317 23,23.7929556 23,25.3568905 C23,27.8288257 19.187542,29.8980145 14.0770266,30.4272015 L11.5524515,45.8422747 C11.5234834,46.0191546 11.4765728,46.0194976 11.4475485,45.8422747 L8.92297339,30.4272015 C3.81245801,29.8980145 1.62536651e-13,27.8288257 1.62536651e-13,25.3568905 C1.62536651e-13,23.7929556 1.52604808,22.3902317 3.94137922,21.4367258 L5.06521448,7.71243381 C3.51141666,6.89371636 2.55555556,5.77927599 2.55555556,4.55123675 C2.55555556,2.0376581 6.56011974,-1.90070182e-13 11.5,-1.90070182e-13 C16.4398803,-1.90070182e-13 20.4444444,2.0376581 20.4444444,4.55123675 C20.4444444,5.77927599 19.4885833,6.89371636 17.9347855,7.71243381 Z M11.5,5.85159011 C14.6756373,5.85159011 17.25,4.97830806 17.25,3.90106007 C17.25,2.82381208 14.6756373,1.95053004 11.5,1.95053004 C8.32436269,1.95053004 5.75,2.82381208 5.75,3.90106007 C5.75,4.97830806 8.32436269,5.85159011 11.5,5.85159011 Z"></path>
                </g>
            </g>
        </g>
    </g>
</svg>