<svg width="48" height="48" xmlns="http://www.w3.org/2000/svg"><path d="M22.407 9.889c-.745.838-1.683 1.657-2.772 2.397l7.235 12.53c1.428-.959 2.617-2.047 3.49-3.145L22.406 9.889zm1.022-1.346l7.835 11.324c2.569-.382 4.592.07 5.374 1.424 1.236 2.14-1.031 5.84-5.193 8.853l5.522 14.612c.063.167.022.191-.091.052l-9.894-12.087c-4.69 2.097-9.027 2.21-10.263.07-.782-1.354-.162-3.332 1.453-5.366l-5.888-12.447c-1.755.068-3.14-.42-3.754-1.483C7.273 11.318 9.722 7.551 14 5.081c4.278-2.47 8.765-2.707 10.022-.53.614 1.063.343 2.506-.593 3.992zm-6.503 1.606c2.75-1.588 4.543-3.631 4.004-4.564-.538-.933-3.205-.402-5.955 1.186-2.75 1.587-4.543 3.63-4.004 4.564.539.933 3.205.402 5.955-1.186z" fill="#0066CC" fill-rule="evenodd"/></svg>